<?xml version="1.0" ?>
<svg viewBox="0 0 25 25" xmlns="http://www.w3.org/2000/svg">
    <defs>
        <style>.cls-1{fill:#fdcb6e;}.cls-2{fill:#fdcb6e;}</style>
    </defs>
    <title/>
    <g data-name="Layer 7" id="Layer_7">
        <path class="cls-1"
              d="M21.5,18H3.5A1.5,1.5,0,0,1,2,16.5v-8A1.5,1.5,0,0,1,3.5,7h18A1.5,1.5,0,0,1,23,8.5V9.65a1.48,1.48,0,0,1-1,1.43,1.5,1.5,0,0,0,0,2.85,1.48,1.48,0,0,1,1,1.43V16.5A1.5,1.5,0,0,1,21.5,18ZM3.5,8a.5.5,0,0,0-.5.5v8a.5.5,0,0,0,.5.5h18a.5.5,0,0,0,.5-.5V15.35a.5.5,0,0,0-.29-.48,2.5,2.5,0,0,1,0-4.74A.5.5,0,0,0,22,9.65V8.5a.5.5,0,0,0-.5-.5Z"/>
        <path class="cls-2" d="M8,17H7V16H8Zm0-2H7V14H8Zm0-2H7V12H8Zm0-2H7V10H8ZM8,9H7V8H8Z"/>
        <path class="cls-2" d="M18,13V12l-3-1V9.58a.51.51,0,1,0-1,0V11l-3,1v1h3v2l-1,.5V16h3v-.5L15,15V13Z"/>
    </g>
</svg>