<?xml version="1.0" ?><!DOCTYPE svg  PUBLIC '-//W3C//DTD SVG 1.1//EN'  'http://www.w3.org/Graphics/SVG/1.1/DTD/svg11.dtd'><svg height="3.8132mm" style="shape-rendering:geometricPrecision; text-rendering:geometricPrecision; image-rendering:optimizeQuality; fill-rule:evenodd; clip-rule:evenodd" version="1.1" viewBox="0 0 484 229" width="8.0433mm" xml:space="preserve" xmlns="http://www.w3.org/2000/svg" xmlns:xlink="http://www.w3.org/1999/xlink"><defs><style type="text/css">
   <![CDATA[
    .fil0 {fill:#e74c3c}
   ]]>
  </style></defs><g id="Layer_x0020_1"><path class="fil0" d="M202 112c25,4 54,4 86,0l4 21c-31,13 -63,12 -95,0l5 -21zm60 -53c32,7 57,33 64,65l158 22 0 19 -57 0c12,20 -3,46 -27,46 -24,0 -38,-26 -27,-46l-47 0c-10,37 -44,64 -84,64 -40,0 -74,-27 -84,-64l-45 0c12,20 -3,46 -27,46 -24,0 -39,-26 -27,-46l-59 0 0 -23 158 -20c8,-31 32,-56 64,-63l9 -59 22 0 9 59z"/></g></svg>